<svg width="383" height="328" viewBox="0 0 383 328" fill="none" xmlns="http://www.w3.org/2000/svg">
<path d="M54 0.5L0.5 102H112C133.5 102 153.5 79 153.5 59V0.5H54Z" fill="#00875F"/>
<path d="M169 58.5V0H222.5L248 2.5L267 8C267 8 268.5 31 267 58.5C265.5 86 244.5 101.5 216 101.5C187.5 101.5 170.5 83 169 58.5Z" fill="#00875F"/>
<path d="M53.5 117L0 209.5H110.5C134.5 209.5 153 190 153 165C153 140 137 119 110.5 117H53.5Z" fill="#00B37E"/>
<path opacity="0.7" d="M54.5 227L1 327H154V273C154 244.5 137.5 227 110 227H54.5Z" fill="#00B37E"/>
<path opacity="0.7" d="M169.5 267V327.5H230C252.112 325.521 260.43 323.752 267.5 319.5V267C267.5 247 247 226.5 218 226.5C189 226.5 169.5 247.5 169.5 267Z" fill="#00B37E"/>
<path opacity="0.7" d="M284 269V315C330.083 290.808 348.052 270.937 369.5 227H324.5C307 227 284 246 284 269Z" fill="#00B37E"/>
<path d="M284.5 58.5C280.365 29.2459 284.5 14 284.5 14C329.52 37.7695 348.526 56.4777 369.5 101C369.5 101 343.827 106.786 321 101C298.173 95.2137 288.635 87.7541 284.5 58.5Z" fill="#00875F"/>
<path d="M375 210.5C384.302 174.381 385.138 153.944 375 117H324C307 117 280.5 137 284 166C287.5 195 305.5 210.5 324 210.5H375Z" fill="#00B37E"/>
<ellipse cx="219" cy="164" rx="49" ry="47" fill="#00B37E"/>
</svg>
